<svg width="14" height="14" viewBox="0 0 14 14" fill="none" xmlns="http://www.w3.org/2000/svg">
<path fill-rule="evenodd" clip-rule="evenodd" d="M5.75834 0.209949C6.05695 0.120372 6.37236 0.101841 6.67941 0.155837C6.98645 0.209832 7.27662 0.334859 7.52675 0.520936C7.77688 0.707013 7.98005 0.948988 8.12004 1.22754C8.26003 1.5061 8.33296 1.81353 8.33301 2.12528V11.8746C8.33296 12.1864 8.26003 12.4938 8.12004 12.7724C7.98005 13.0509 7.77688 13.2929 7.52675 13.479C7.27662 13.665 6.98645 13.7901 6.67941 13.8441C6.37236 13.8981 6.05695 13.8795 5.75834 13.7899L1.75834 12.5899C1.34641 12.4664 0.985281 12.2133 0.728529 11.8683C0.471777 11.5233 0.333078 11.1047 0.333008 10.6746V3.32528C0.333078 2.89521 0.471777 2.47662 0.728529 2.13161C0.985281 1.78659 1.34641 1.53352 1.75834 1.40995L5.75834 0.209949ZM8.99967 1.66662C8.99967 1.4898 9.06991 1.32024 9.19494 1.19521C9.31996 1.07019 9.48953 0.999949 9.66634 0.999949H11.6663C12.1968 0.999949 12.7055 1.21066 13.0806 1.58574C13.4556 1.96081 13.6663 2.46952 13.6663 2.99995V3.66662C13.6663 3.84343 13.5961 4.013 13.4711 4.13802C13.3461 4.26304 13.1765 4.33328 12.9997 4.33328C12.8229 4.33328 12.6533 4.26304 12.5283 4.13802C12.4032 4.013 12.333 3.84343 12.333 3.66662V2.99995C12.333 2.82314 12.2628 2.65357 12.1377 2.52854C12.0127 2.40352 11.8432 2.33328 11.6663 2.33328H9.66634C9.48953 2.33328 9.31996 2.26304 9.19494 2.13802C9.06991 2.013 8.99967 1.84343 8.99967 1.66662ZM12.9997 9.66662C13.1765 9.66662 13.3461 9.73685 13.4711 9.86188C13.5961 9.9869 13.6663 10.1565 13.6663 10.3333V10.9999C13.6663 11.5304 13.4556 12.0391 13.0806 12.4142C12.7055 12.7892 12.1968 12.9999 11.6663 12.9999H9.66634C9.48953 12.9999 9.31996 12.9297 9.19494 12.8047C9.06991 12.6797 8.99967 12.5101 8.99967 12.3333C8.99967 12.1565 9.06991 11.9869 9.19494 11.8619C9.31996 11.7369 9.48953 11.6666 9.66634 11.6666H11.6663C11.8432 11.6666 12.0127 11.5964 12.1377 11.4714C12.2628 11.3463 12.333 11.1768 12.333 10.9999V10.3333C12.333 10.1565 12.4032 9.9869 12.5283 9.86188C12.6533 9.73685 12.8229 9.66662 12.9997 9.66662ZM4.99967 6.33328C4.82286 6.33328 4.65329 6.40352 4.52827 6.52854C4.40325 6.65357 4.33301 6.82314 4.33301 6.99995C4.33301 7.17676 4.40325 7.34633 4.52827 7.47135C4.65329 7.59638 4.82286 7.66662 4.99967 7.66662H5.00034C5.17715 7.66662 5.34672 7.59638 5.47175 7.47135C5.59677 7.34633 5.66701 7.17676 5.66701 6.99995C5.66701 6.82314 5.59677 6.65357 5.47175 6.52854C5.34672 6.40352 5.17715 6.33328 5.00034 6.33328H4.99967Z" fill="#888888"/>
<path d="M12.9993 6.99996H9.66602M9.66602 6.99996L10.9993 5.66663M9.66602 6.99996L10.9993 8.33329" stroke="#888888" stroke-width="2" stroke-linecap="round" stroke-linejoin="round"/>
</svg>
